<svg width="223" height="57" viewBox="0 0 223 57" fill="none" xmlns="http://www.w3.org/2000/svg">
<path fill-rule="evenodd" clip-rule="evenodd" d="M22.5262 11.1654L21.9398 12.3889L21.0354 12.391C20.538 12.3921 20.131 12.4016 20.131 12.4121C20.131 12.4225 20.4318 12.889 20.7995 13.4486C21.1672 14.0082 21.5473 14.6036 21.6443 14.7716C21.7413 14.9396 21.9617 15.3597 22.1342 15.7051C22.3066 16.0504 22.5332 16.5422 22.6378 16.7977C22.7423 17.0533 22.8683 17.4086 22.9178 17.5873C22.9672 17.7659 23.0077 18.0019 23.0077 18.1117C23.0077 18.2382 22.9669 18.3931 22.8966 18.5345C22.8354 18.6573 22.7129 18.8125 22.6241 18.8795C22.5354 18.9465 22.3478 19.1101 22.2071 19.2431C22.0665 19.3761 21.8654 19.6052 21.7605 19.7522C21.6555 19.8992 21.521 20.1257 21.4617 20.2554C21.4023 20.3852 21.3347 20.6258 21.3115 20.7899C21.2846 20.9804 21.2843 21.2204 21.3107 21.4531C21.3335 21.6537 21.3971 21.9419 21.452 22.0935C21.5106 22.255 21.7279 22.6257 21.9765 22.9883C22.2101 23.3288 22.4613 23.736 22.5348 23.8933C22.6473 24.1341 22.6638 24.2104 22.639 24.376C22.6228 24.4842 22.574 24.6762 22.5305 24.8028C22.487 24.9293 22.232 25.4695 21.9638 26.0031C21.5461 26.8344 21.4513 26.9915 21.3023 27.0996C21.2067 27.169 21.0704 27.2385 20.9995 27.2541C20.9117 27.2734 20.8257 27.2568 20.7296 27.202C20.6399 27.1508 20.5455 27.0345 20.4697 26.882C20.3967 26.7349 20.3258 26.4822 20.2862 26.2278C20.2507 25.9997 20.1922 25.4891 20.1563 25.0931C20.1204 24.697 20.0703 24.0391 20.045 23.631C20.0197 23.223 19.9978 22.5847 19.9963 22.2126C19.9942 21.6844 20.0119 21.4629 20.0772 21.2017C20.1391 20.954 20.2866 20.6366 20.6448 19.9797C20.911 19.4916 21.2181 18.8993 21.3273 18.6636C21.4364 18.4279 21.5257 18.2168 21.5257 18.1944C21.5257 18.1721 21.4958 18.1539 21.4591 18.1539C21.4225 18.1539 21.2771 18.0956 21.136 18.0243C20.995 17.953 20.7627 17.7972 20.6198 17.6781C20.4768 17.559 20.2431 17.3063 20.1003 17.1165C19.9574 16.9267 19.7316 16.5571 19.5984 16.2952C19.4652 16.0333 19.2846 15.6262 19.197 15.3905C19.1094 15.1549 18.987 14.7719 18.9252 14.5395C18.8633 14.3071 18.7578 13.854 18.6909 13.5326C18.624 13.2112 18.543 12.9317 18.5111 12.9114C18.4791 12.8911 18.4431 12.8745 18.4312 12.8745C18.4192 12.8745 18.387 12.8889 18.3597 12.9065C18.3323 12.9242 18.2397 13.0588 18.1538 13.2058C18.0679 13.3528 17.9254 13.5365 17.8373 13.6141C17.6995 13.7352 17.6543 13.7514 17.5164 13.7293C17.4281 13.7152 17.1712 13.6168 16.9455 13.5106C16.7198 13.4044 16.4246 13.2952 16.2895 13.2678C16.1544 13.2405 15.9877 13.2315 15.919 13.2478C15.8504 13.264 15.7471 13.319 15.6895 13.3698C15.6319 13.4207 15.4232 13.7962 15.2257 14.2042C15.0283 14.6123 14.8083 15.0759 14.7368 15.2344C14.6653 15.393 14.5344 15.6029 14.4459 15.701C14.3569 15.7997 14.1984 15.9124 14.0913 15.9534C13.9546 16.0057 13.8239 16.0208 13.6464 16.0047C13.4992 15.9913 13.149 15.8894 12.8003 15.7586C12.473 15.6358 12.1657 15.5353 12.1172 15.5353C12.0688 15.5353 12.0168 15.5554 12.0017 15.5798C11.9866 15.6043 12.072 15.8252 12.1915 16.0708C12.3109 16.3164 12.4687 16.6686 12.542 16.8536C12.6154 17.0386 12.714 17.3822 12.7611 17.6173C12.8082 17.8524 12.8773 18.3001 12.9146 18.6121C12.9519 18.9242 12.9874 19.2579 12.9936 19.3537C13.0017 19.4804 13.0258 19.5319 13.082 19.5426C13.1324 19.5521 13.3388 19.385 13.6754 19.0622C13.9593 18.7898 14.3658 18.4419 14.5788 18.289C14.7918 18.1359 15.1426 17.9272 15.3584 17.825C15.5741 17.7228 15.8879 17.6047 16.0557 17.5625C16.2364 17.5171 16.5309 17.4851 16.7777 17.484C17.1344 17.4824 17.2256 17.4975 17.4096 17.5889C17.5322 17.6498 17.6685 17.7613 17.7267 17.8484C17.8101 17.9733 17.8239 18.0367 17.8025 18.1962C17.7882 18.3035 17.7129 18.4969 17.6352 18.6261C17.5576 18.7553 17.371 18.9766 17.2206 19.1179C17.0702 19.2592 16.821 19.4475 16.6668 19.5363C16.4799 19.6439 16.3689 19.7401 16.3339 19.8246C16.2986 19.9101 16.2947 19.9892 16.322 20.0673C16.3551 20.1617 16.4231 20.2039 16.6886 20.2946C16.8679 20.3557 17.0735 20.4374 17.1454 20.4759C17.2173 20.5144 17.318 20.592 17.3691 20.6483C17.4202 20.7046 17.494 20.8138 17.5329 20.8911C17.5767 20.9779 17.6199 21.2363 17.646 21.5675C17.6691 21.8623 17.7079 22.7614 17.732 23.5656C17.7562 24.3697 17.7962 26.0881 17.821 27.3843C17.8457 28.6805 17.8862 29.9821 17.9109 30.2768C17.9357 30.5716 17.9943 30.963 18.0412 31.1468C18.0882 31.3305 18.187 31.6122 18.261 31.7728C18.345 31.9554 18.4796 32.1478 18.6203 32.2865C18.744 32.4085 18.9405 32.5503 19.0568 32.6017C19.2147 32.6713 19.4193 32.7056 19.8632 32.7369C20.1903 32.7599 20.6736 32.7728 20.9373 32.7655L21.4168 32.7523L21.4306 33.1669C21.4383 33.395 21.4224 33.9056 21.3954 34.3016C21.3684 34.6977 21.286 35.4931 21.2122 36.0692C21.1205 36.7862 21.0766 37.3231 21.0731 37.7712C21.0698 38.198 21.089 38.5094 21.1281 38.6659C21.1611 38.7979 21.2357 39.0081 21.2938 39.133C21.3519 39.2579 21.5678 39.59 21.7736 39.8709C21.9793 40.1517 22.2426 40.538 22.3586 40.7292C22.4746 40.9204 22.6108 41.1874 22.6613 41.3225C22.7154 41.4671 22.7634 41.7259 22.778 41.9518C22.7943 42.204 22.7755 42.5582 22.7231 42.9846C22.6543 43.5445 22.6512 43.6686 22.7003 43.8881C22.7429 44.0788 22.7968 44.1822 22.9156 44.3012C23.0372 44.4229 23.1336 44.4722 23.33 44.513C23.4799 44.5442 23.6872 44.5542 23.8307 44.5373C23.9653 44.5213 24.2618 44.4618 24.4896 44.405C24.7173 44.3481 25.0802 44.2394 25.2959 44.1633C25.5117 44.0873 25.8775 43.9281 26.1088 43.8095C26.3767 43.6722 26.6363 43.4958 26.8237 43.3239C27.0111 43.1519 27.1549 42.9744 27.2199 42.8348C27.2775 42.7108 27.322 42.5324 27.3222 42.4242C27.3225 42.319 27.3012 42.1611 27.2749 42.0734C27.2487 41.9857 27.021 41.6299 26.7689 41.2827C26.5169 40.9356 26.1825 40.4356 26.0259 40.1716C25.8692 39.9075 25.673 39.5344 25.5898 39.3424C25.4877 39.1067 25.4313 38.8997 25.4163 38.7055C25.3945 38.4219 25.3964 38.4154 25.5494 38.2622C25.6348 38.1767 25.8971 37.9942 26.1323 37.8566C26.3675 37.7191 26.6453 37.5375 26.7497 37.4531C26.8541 37.3687 26.9953 37.2225 27.0635 37.1282C27.1318 37.0338 27.2003 36.8718 27.2159 36.7681C27.2342 36.6459 27.2198 36.4973 27.175 36.3462C27.1299 36.1941 26.9976 35.9683 26.7953 35.6982C26.6244 35.4702 26.3297 35.049 26.1404 34.7623C25.951 34.4756 25.6985 34.0435 25.5791 33.8021C25.4598 33.5608 25.3111 33.216 25.2487 33.036C25.1734 32.8186 25.1274 32.5752 25.1119 32.3111C25.0991 32.0925 25.1068 31.8809 25.1291 31.8409C25.1624 31.7815 25.6319 32.261 27.7172 34.4843C29.1183 35.9781 30.5495 37.4921 30.8975 37.8488L31.5305 38.4973L31.7213 38.4834C31.8697 38.4726 31.932 38.4428 32.0012 38.3497C32.0706 38.2562 32.094 38.1458 32.1074 37.8478C32.12 37.5686 32.1002 37.3546 32.0336 37.053C31.9836 36.8259 31.9206 36.4146 31.8937 36.1388C31.8666 35.8603 31.8549 35.3163 31.8675 34.915C31.8839 34.3942 31.928 33.9699 32.0255 33.3951C32.0998 32.9564 32.1607 32.474 32.1607 32.3228C32.1607 32.1717 32.1318 31.9512 32.0965 31.8329C32.0613 31.7145 31.9695 31.5414 31.8926 31.4483C31.8157 31.3552 31.6729 31.2427 31.5753 31.1983C31.4581 31.145 31.2943 31.1173 31.0928 31.1164C30.925 31.1158 30.7171 31.0956 30.6308 31.0716C30.5445 31.0476 30.4381 30.9883 30.3943 30.9398C30.3316 30.8705 30.3164 30.7894 30.323 30.5582C30.3276 30.3968 30.369 30.0879 30.4149 29.8719C30.4609 29.6559 30.5326 29.3271 30.5744 29.1413C30.6374 28.861 30.6409 28.7857 30.5948 28.6995C30.5642 28.6424 30.465 28.5538 30.3742 28.5028C30.2653 28.4415 30.133 28.4099 29.9849 28.4099C29.8616 28.4099 29.6975 28.4366 29.6204 28.4693C29.5432 28.502 29.4409 28.5733 29.393 28.6278C29.345 28.6822 29.2322 28.7735 29.1423 28.8307C29.0524 28.8879 28.873 28.9623 28.7437 28.9961C28.5856 29.0373 28.4553 29.0454 28.3461 29.0207C28.2568 29.0005 28.1628 28.9631 28.1373 28.9376C28.1045 28.9048 28.1335 28.7918 28.2361 28.5523C28.3159 28.366 28.4697 28.0466 28.5778 27.8425C28.686 27.6385 28.8722 27.3243 28.9916 27.1443C29.1111 26.9642 29.2864 26.7237 29.3812 26.6096C29.476 26.4956 29.5884 26.4023 29.6309 26.4023C29.6733 26.4023 29.9117 26.4792 30.1607 26.5732C30.4096 26.6672 30.7703 26.8117 30.9621 26.8944C31.1538 26.977 31.4578 27.1185 31.6376 27.2088C31.8174 27.2991 32.1262 27.4781 32.3238 27.6066C32.5214 27.7351 32.7715 27.9218 32.8795 28.0215L33.076 28.2028V33.3717C33.076 37.0058 33.09 38.567 33.1233 38.6292C33.1493 38.6779 33.2575 38.7563 33.3638 38.8033C33.4911 38.8597 33.659 38.8899 33.8558 38.8917C34.0201 38.8933 34.2251 38.8712 34.3112 38.8428C34.3973 38.8143 34.5175 38.7319 34.5782 38.6597L34.6886 38.5283V33.2495V27.9707L34.928 27.6287C35.0596 27.4406 35.2269 27.1591 35.2997 27.0032C35.3726 26.8474 35.4511 26.6042 35.4742 26.4629C35.4974 26.3215 35.5164 26.057 35.5165 25.875C35.5166 25.693 35.4942 25.4318 35.4667 25.2946C35.4171 25.0473 35.4179 25.0438 35.5492 24.9054C35.6221 24.8286 35.7279 24.6774 35.7845 24.5693C35.875 24.3963 35.8869 24.316 35.8843 23.8929C35.8819 23.4896 35.8619 23.3535 35.7594 23.0419C35.6923 22.8378 35.5699 22.534 35.4875 22.3667C35.405 22.1993 35.296 21.9931 35.245 21.9084C35.1941 21.8237 35.0579 21.6338 34.9423 21.4863L34.7322 21.2183V20.2098V19.2013H36.0834H37.4345L37.4357 17.0083L37.4368 14.8152L37.6729 14.4478L37.9091 14.0805L37.8056 13.9023C37.7487 13.8043 37.49 13.3467 37.2305 12.8855C36.9712 12.4242 36.743 12.0412 36.7235 12.0345C36.704 12.0276 36.4321 12.4738 36.1192 13.0259C35.8063 13.578 35.5493 14.0502 35.5481 14.0753C35.5468 14.1004 35.6472 14.2791 35.771 14.4724L35.9962 14.824V15.987V17.1501H35.2988H34.6015V15.9951V14.8401L34.8438 14.464L35.086 14.0879L34.5319 13.0987C34.227 12.5545 33.9552 12.0846 33.9278 12.0543C33.8893 12.0116 33.7475 12.2307 33.3026 13.0202C32.9862 13.5817 32.7273 14.0593 32.7273 14.0814C32.7273 14.1036 32.8355 14.2925 32.9677 14.5012L33.2082 14.8807L33.1966 16.0045L33.1849 17.1283L32.4767 17.1403L31.7684 17.1523V16.0075V14.8628L32.0116 14.4786C32.1454 14.2673 32.2484 14.0775 32.2405 14.0569C32.2325 14.0363 31.9715 13.5651 31.6602 13.0099C31.349 12.4546 31.0843 12.0004 31.0718 12.0005C31.0594 12.0006 30.7894 12.4603 30.4717 13.0221C30.1541 13.5839 29.8942 14.0549 29.8942 14.0688C29.8942 14.0827 30.0021 14.2679 30.1339 14.4803L30.3736 14.8665V17.0333V19.2L31.7139 19.2116L33.0542 19.2231L33.0662 19.904L33.0781 20.5848L32.5867 20.6105C32.3164 20.6247 31.9473 20.6749 31.7664 20.7221C31.5855 20.7693 31.031 20.9963 30.5341 21.2265C30.0373 21.4567 29.5141 21.6844 29.3716 21.7324C29.229 21.7805 29.0618 21.8199 29.0001 21.8199C28.9383 21.8199 28.8396 21.7716 28.7808 21.7127C28.722 21.6538 28.6738 21.5585 28.6738 21.501C28.6738 21.4434 28.7179 21.3318 28.7719 21.253C28.8354 21.1601 29.0387 21.0142 29.3494 20.8383C29.6131 20.689 29.922 20.4839 30.0359 20.3824C30.2042 20.2324 30.2429 20.1709 30.2429 20.0532C30.2429 19.9161 30.1918 19.8691 29.2694 19.1574L28.2959 18.4064L28.4017 17.9855C28.4938 17.6189 28.5117 17.4158 28.5413 16.4082C28.5721 15.3613 28.5861 15.2115 28.6891 14.8287C28.7517 14.5961 28.8791 14.2288 28.9722 14.0126C29.0654 13.7963 29.2312 13.476 29.3407 13.3008C29.4503 13.1256 29.6483 12.8546 29.7808 12.6986L30.0218 12.4149L29.1389 12.4031L28.2559 12.3914L27.7445 11.2466C27.4632 10.617 27.2166 10.0754 27.1965 10.0431C27.1708 10.0021 27.0626 10.1529 26.8362 10.545C26.6583 10.8534 26.3468 11.3952 26.144 11.7492L25.7753 12.3927L25.0978 12.3929L24.4202 12.3931L23.812 11.2313C23.4775 10.5924 23.1833 10.0409 23.1582 10.0057C23.1228 9.95628 22.9805 10.2174 22.5262 11.1654ZM23.9491 14.0003C24.0426 14.0682 24.1827 14.1965 24.2605 14.2852C24.3382 14.374 24.4445 14.5296 24.4966 14.631C24.5515 14.7379 24.5928 14.9018 24.5949 15.0215C24.5978 15.1886 24.5769 15.2494 24.4844 15.342C24.4061 15.4205 24.3206 15.4578 24.2122 15.4608C24.116 15.4636 24.0082 15.431 23.937 15.3778C23.8727 15.3297 23.7837 15.2203 23.7393 15.1346C23.6949 15.049 23.6374 14.7997 23.6115 14.5808C23.5857 14.3618 23.5774 14.1138 23.5932 14.0297C23.6133 13.9221 23.6451 13.8769 23.7005 13.8769C23.7437 13.8769 23.8556 13.9325 23.9491 14.0003ZM27.1767 13.9969C27.1932 14.0629 27.1833 14.3033 27.1545 14.5312C27.1258 14.7591 27.0626 15.0275 27.0142 15.1277C26.9657 15.2279 26.8829 15.3382 26.8302 15.3727C26.7774 15.4072 26.6906 15.4493 26.6373 15.4662C26.5787 15.4847 26.4819 15.4691 26.3927 15.4267C26.3115 15.3881 26.2228 15.3075 26.1955 15.2475C26.1681 15.1875 26.146 15.0854 26.1463 15.0205C26.1465 14.9556 26.1929 14.8031 26.2495 14.6815C26.306 14.5599 26.4186 14.3846 26.4997 14.2921C26.5807 14.1995 26.7236 14.0682 26.817 14.0003C26.9105 13.9325 27.0229 13.8769 27.0668 13.8769C27.1175 13.8769 27.1576 13.9207 27.1767 13.9969ZM26.302 17.9684C26.2867 18.0344 26.2131 18.2616 26.1382 18.4733C26.0634 18.6851 25.8923 19.0768 25.758 19.3438C25.6237 19.6109 25.4942 19.829 25.4702 19.8285C25.4463 19.8279 25.334 19.6522 25.2209 19.438C25.1077 19.2238 24.9378 18.8522 24.8435 18.6121C24.7492 18.3721 24.6521 18.1021 24.6279 18.012L24.5838 17.8484H25.4567H26.3296L26.302 17.9684ZM32.2587 22.9178C32.3725 22.9428 32.582 23.0385 32.7241 23.1305C32.8662 23.2225 33.0036 23.3371 33.0292 23.3851C33.0568 23.4367 33.076 23.754 33.076 24.1582V24.8439L32.651 24.8183C32.4173 24.8042 32.0792 24.7509 31.8998 24.6998C31.7204 24.6488 31.4375 24.5353 31.271 24.4478C31.1046 24.3602 30.8529 24.1815 30.7117 24.0506C30.5706 23.9198 30.4171 23.7383 30.3708 23.6472C30.3244 23.5562 30.2865 23.4329 30.2865 23.3731C30.2865 23.3016 30.3349 23.228 30.4281 23.1577C30.5061 23.0989 30.6676 23.018 30.7871 22.9779C30.9066 22.9378 31.1518 22.8891 31.3319 22.8697C31.5121 22.8503 31.7477 22.8429 31.8556 22.8533C31.9634 22.8637 32.1448 22.8927 32.2587 22.9178Z" fill="#D12132"/>
<path d="M112.164 15.3365V14.3365H111.164V15.3365H112.164ZM125.724 18.5765L124.804 18.9704L124.809 18.9804L124.813 18.9903L125.724 18.5765ZM125.724 36.3365L124.81 35.9288L124.807 35.9357L124.804 35.9426L125.724 36.3365ZM123.234 38.8265L122.817 37.9171L122.811 37.9199L123.234 38.8265ZM112.164 39.6365H111.164V40.6365H112.164V39.6365ZM120.084 35.5865L120.605 36.4398L120.611 36.4359L120.618 36.432L120.084 35.5865ZM120.804 34.5965L121.776 34.8281L121.779 34.8181L120.804 34.5965ZM120.774 20.3165L119.801 20.5481L119.807 20.5762L119.816 20.6038L120.774 20.3165ZM120.054 19.3865L119.568 20.2606L119.578 20.2661L119.588 20.2714L120.054 19.3865ZM117.534 19.0865V18.0865H116.534V19.0865H117.534ZM117.534 35.9165H116.534V36.9165H117.534V35.9165ZM112.164 16.3365H118.314V14.3365H112.164V16.3365ZM118.314 16.3365C120.351 16.3365 121.833 16.5919 122.83 17.0316L123.637 15.2014C122.275 14.6011 120.476 14.3365 118.314 14.3365V16.3365ZM122.83 17.0316C123.793 17.456 124.43 18.0977 124.804 18.9704L126.643 18.1826C126.057 16.8153 125.034 15.817 123.637 15.2014L122.83 17.0316ZM124.813 18.9903C125.231 19.9093 125.474 21.2299 125.474 23.0165H127.474C127.474 21.0831 127.216 19.4436 126.634 18.1627L124.813 18.9903ZM125.474 23.0165V31.8365H127.474V23.0165H125.474ZM125.474 31.8365C125.474 33.6435 125.231 34.987 124.81 35.9288L126.637 36.7441C127.216 35.446 127.474 33.7895 127.474 31.8365H125.474ZM124.804 35.9426C124.429 36.8185 123.788 37.4732 122.817 37.9172L123.65 39.7358C125.039 39.0998 126.058 38.0944 126.643 36.7304L124.804 35.9426ZM122.811 37.9199C121.841 38.3716 120.388 38.6365 118.374 38.6365V40.6365C120.519 40.6365 122.306 40.3613 123.656 39.7331L122.811 37.9199ZM118.374 38.6365H112.164V40.6365H118.374V38.6365ZM113.164 39.6365V15.3365H111.164V39.6365H113.164ZM118.374 36.9165C119.205 36.9165 120.004 36.8071 120.605 36.4398L119.562 34.7332C119.443 34.8059 119.102 34.9165 118.374 34.9165V36.9165ZM120.618 36.432C121.208 36.0589 121.613 35.5135 121.776 34.8281L119.831 34.3649C119.794 34.5194 119.719 34.6341 119.55 34.741L120.618 36.432ZM121.779 34.8181C121.904 34.2679 121.954 33.5389 121.954 32.6765H119.954C119.954 33.494 119.903 34.0451 119.828 34.3749L121.779 34.8181ZM121.954 32.6765V22.0865H119.954V32.6765H121.954ZM121.954 22.0865C121.954 21.278 121.894 20.571 121.731 20.0291L119.816 20.6038C119.893 20.862 119.954 21.335 119.954 22.0865H121.954ZM121.746 20.0849C121.58 19.3859 121.156 18.8368 120.519 18.5016L119.588 20.2714C119.711 20.3362 119.767 20.4071 119.801 20.5481L121.746 20.0849ZM120.539 18.5123C119.949 18.1846 119.167 18.0865 118.344 18.0865V20.0865C119.08 20.0865 119.438 20.1883 119.568 20.2606L120.539 18.5123ZM118.344 18.0865H117.534V20.0865H118.344V18.0865ZM116.534 19.0865V35.9165H118.534V19.0865H116.534ZM117.534 36.9165H118.374V34.9165H117.534V36.9165ZM132.762 15.3365V14.3365H131.762V15.3365H132.762ZM143.682 15.3365H144.682V14.3365H143.682V15.3365ZM143.682 18.9965V19.9965H144.682V18.9965H143.682ZM138.132 18.9965V17.9965H137.132V18.9965H138.132ZM138.132 25.0265H137.132V26.0265H138.132V25.0265ZM142.362 25.0265H143.362V24.0265H142.362V25.0265ZM142.362 28.7465V29.7465H143.362V28.7465H142.362ZM138.132 28.7465V27.7465H137.132V28.7465H138.132ZM138.132 36.0065H137.132V37.0065H138.132V36.0065ZM143.742 36.0065H144.742V35.0065H143.742V36.0065ZM143.742 39.6365V40.6365H144.742V39.6365H143.742ZM132.762 39.6365H131.762V40.6365H132.762V39.6365ZM132.762 16.3365H143.682V14.3365H132.762V16.3365ZM142.682 15.3365V18.9965H144.682V15.3365H142.682ZM143.682 17.9965H138.132V19.9965H143.682V17.9965ZM137.132 18.9965V25.0265H139.132V18.9965H137.132ZM138.132 26.0265H142.362V24.0265H138.132V26.0265ZM141.362 25.0265V28.7465H143.362V25.0265H141.362ZM142.362 27.7465H138.132V29.7465H142.362V27.7465ZM137.132 28.7465V36.0065H139.132V28.7465H137.132ZM138.132 37.0065H143.742V35.0065H138.132V37.0065ZM142.742 36.0065V39.6365H144.742V36.0065H142.742ZM143.742 38.6365H132.762V40.6365H143.742V38.6365ZM133.762 39.6365V15.3365H131.762V39.6365H133.762ZM148.06 15.3365V14.3365H146.863L147.075 15.5139L148.06 15.3365ZM152.65 15.3365L153.637 15.1802L153.504 14.3365H152.65V15.3365ZM155.26 31.8365L154.272 31.9927L156.249 31.9822L155.26 31.8365ZM157.69 15.3365V14.3365H156.826L156.7 15.1908L157.69 15.3365ZM162.55 15.3365L163.533 15.5162L163.749 14.3365H162.55V15.3365ZM158.11 39.6365V40.6365H158.943L159.093 39.8162L158.11 39.6365ZM152.44 39.6365L151.455 39.8139L151.604 40.6365H152.44V39.6365ZM148.06 16.3365H152.65V14.3365H148.06V16.3365ZM151.662 15.4927L154.272 31.9927L156.247 31.6802L153.637 15.1802L151.662 15.4927ZM156.249 31.9822L158.679 15.4822L156.7 15.1908L154.27 31.6908L156.249 31.9822ZM157.69 16.3365H162.55V14.3365H157.69V16.3365ZM161.566 15.1567L157.126 39.4567L159.093 39.8162L163.533 15.5162L161.566 15.1567ZM158.11 38.6365H152.44V40.6365H158.11V38.6365ZM153.424 39.4591L149.044 15.1591L147.075 15.5139L151.455 39.8139L153.424 39.4591ZM168.041 15.3365V14.3365H167.041V15.3365H168.041ZM173.411 15.3365H174.411V14.3365H173.411V15.3365ZM173.411 39.6365V40.6365H174.411V39.6365H173.411ZM168.041 39.6365H167.041V40.6365H168.041V39.6365ZM168.041 16.3365H173.411V14.3365H168.041V16.3365ZM172.411 15.3365V39.6365H174.411V15.3365H172.411ZM173.411 38.6365H168.041V40.6365H173.411V38.6365ZM169.041 39.6365V15.3365H167.041V39.6365H169.041ZM180.054 15.3365V14.3365H179.054V15.3365H180.054ZM185.424 15.3365H186.424V14.3365H185.424V15.3365ZM185.424 36.0065H184.424V37.0065H185.424V36.0065ZM191.004 36.0065H192.004V35.0065H191.004V36.0065ZM191.004 39.6365V40.6365H192.004V39.6365H191.004ZM180.054 39.6365H179.054V40.6365H180.054V39.6365ZM180.054 16.3365H185.424V14.3365H180.054V16.3365ZM184.424 15.3365V36.0065H186.424V15.3365H184.424ZM185.424 37.0065H191.004V35.0065H185.424V37.0065ZM190.004 36.0065V39.6365H192.004V36.0065H190.004ZM191.004 38.6365H180.054V40.6365H191.004V38.6365ZM181.054 39.6365V15.3365H179.054V39.6365H181.054ZM197.4 38.1665L196.658 38.8368L196.664 38.843L196.67 38.8492L197.4 38.1665ZM195.6 32.2865L195.452 31.2976L194.574 31.4295L194.601 32.3163L195.6 32.2865ZM200.19 31.5965L201.19 31.5835L201.176 30.4372L200.042 30.6076L200.19 31.5965ZM200.73 34.9265L199.836 35.3737L199.844 35.3897L199.853 35.4053L200.73 34.9265ZM203.01 31.7165L202.16 32.242L202.165 32.2509L202.171 32.2597L203.01 31.7165ZM201 29.5265L200.343 30.2805L200.354 30.2892L201 29.5265ZM198.9 27.6965L199.557 26.9426L199.552 26.9378L199.546 26.9331L198.9 27.6965ZM196.47 24.9065L195.598 25.3951L195.604 25.4055L195.61 25.4158L196.47 24.9065ZM197.43 16.6565L196.761 15.9138L196.755 15.9193L197.43 16.6565ZM207.12 17.0165L206.267 17.5385L206.273 17.5476L207.12 17.0165ZM208.47 21.9065L208.593 22.8989L209.498 22.7872L209.47 21.8752L208.47 21.9065ZM203.85 22.4765L202.851 22.5082L202.886 23.6031L203.973 23.4689L203.85 22.4765ZM203.49 19.7765L202.538 20.0825L202.545 20.1033L202.553 20.1238L203.49 19.7765ZM201.18 19.5365L200.342 18.9914L200.335 19.0025L201.18 19.5365ZM201.36 22.8965L200.519 23.4372L200.526 23.4477L200.533 23.458L201.36 22.8965ZM203.16 24.8165L203.821 24.066L203.82 24.065L203.16 24.8165ZM205.17 26.5865L204.51 27.337L204.516 27.3427L204.523 27.3484L205.17 26.5865ZM207.96 29.8265L208.826 29.3254L208.826 29.3254L207.96 29.8265ZM208.14 36.9965L207.273 36.4983L207.27 36.5044L208.14 36.9965ZM205.92 39.1865L205.43 38.3149L205.43 38.3149L205.92 39.1865ZM202.59 38.9965C200.436 38.9965 199.018 38.4325 198.131 37.4837L196.67 38.8492C198.063 40.3405 200.104 40.9965 202.59 40.9965V38.9965ZM198.143 37.4962C197.253 36.5116 196.677 34.8341 196.6 32.2566L194.601 32.3163C194.684 35.0988 195.308 37.3413 196.658 38.8368L198.143 37.4962ZM195.749 33.2754L200.339 32.5854L200.042 30.6076L195.452 31.2976L195.749 33.2754ZM199.191 31.6095C199.211 33.1764 199.389 34.48 199.836 35.3737L201.625 34.4793C201.392 34.0129 201.21 33.0965 201.19 31.5835L199.191 31.6095ZM199.853 35.4053C200.098 35.8559 200.431 36.2448 200.869 36.5179C201.312 36.7933 201.807 36.9165 202.32 36.9165V34.9165C202.134 34.9165 202.014 34.8747 201.927 34.8201C201.835 34.7632 201.723 34.6571 201.608 34.4476L199.853 35.4053ZM202.32 36.9165C203.008 36.9165 203.673 36.677 204.128 36.0804C204.544 35.5351 204.67 34.8353 204.67 34.1465H202.67C202.67 34.6376 202.572 34.8229 202.538 34.8675C202.528 34.8809 202.522 34.8844 202.511 34.8895C202.493 34.8973 202.437 34.9165 202.32 34.9165V36.9165ZM204.67 34.1465C204.67 33.0454 204.411 32.0397 203.85 31.1732L202.171 32.2597C202.49 32.7532 202.67 33.3676 202.67 34.1465H204.67ZM203.861 31.191C203.366 30.3885 202.611 29.5807 201.647 28.7637L200.354 30.2892C201.23 31.0322 201.815 31.6844 202.16 32.242L203.861 31.191ZM201.657 28.7726L199.557 26.9426L198.243 28.4504L200.343 30.2804L201.657 28.7726ZM199.546 26.9331C198.575 26.1114 197.844 25.2643 197.331 24.3972L195.61 25.4158C196.257 26.5086 197.146 27.5215 198.255 28.4599L199.546 26.9331ZM197.343 24.4179C196.881 23.5928 196.63 22.5874 196.63 21.3665H194.63C194.63 22.8656 194.94 24.2202 195.598 25.3951L197.343 24.4179ZM196.63 21.3665C196.63 19.5308 197.163 18.2584 198.106 17.3936L196.755 15.9193C195.298 17.2546 194.63 19.1221 194.63 21.3665H196.63ZM198.1 17.3992C199.088 16.5084 200.494 16.0065 202.44 16.0065V14.0065C200.147 14.0065 198.213 14.6045 196.761 15.9138L198.1 17.3992ZM202.44 16.0065C204.568 16.0065 205.705 16.6194 206.268 17.5384L207.973 16.4945C206.896 14.7336 204.913 14.0065 202.44 14.0065V16.0065ZM206.273 17.5476C207.001 18.7082 207.415 20.1569 207.471 21.9377L209.47 21.8752C209.406 19.816 208.92 18.0047 207.968 16.4853L206.273 17.5476ZM208.348 20.914L203.728 21.484L203.973 23.4689L208.593 22.8989L208.348 20.914ZM204.85 22.4447C204.81 21.174 204.689 20.1328 204.428 19.4292L202.553 20.1238C202.692 20.5001 202.811 21.2589 202.851 22.5082L204.85 22.4447ZM204.443 19.4705C204.298 19.0194 204.033 18.6081 203.612 18.3207C203.199 18.0384 202.724 17.9365 202.26 17.9365V19.9365C202.348 19.9365 202.406 19.9462 202.44 19.9552C202.472 19.9638 202.483 19.9718 202.484 19.9723C202.485 19.9729 202.486 19.9734 202.486 19.9742C202.487 19.9751 202.49 19.9779 202.494 19.9837C202.502 19.9954 202.52 20.0246 202.538 20.0825L204.443 19.4705ZM202.26 17.9365C201.447 17.9365 200.778 18.3204 200.342 18.9915L202.019 20.0815C202.074 19.9965 202.115 19.9696 202.131 19.9606C202.146 19.9525 202.18 19.9365 202.26 19.9365V17.9365ZM200.335 19.0025C199.987 19.5533 199.82 20.1709 199.82 20.8265H201.82C201.82 20.5221 201.894 20.2797 202.026 20.0705L200.335 19.0025ZM199.82 20.8265C199.82 21.7937 200.034 22.6822 200.519 23.4372L202.202 22.3557C201.967 21.9908 201.82 21.4993 201.82 20.8265H199.82ZM200.533 23.458C200.981 24.1175 201.651 24.8216 202.501 25.5679L203.82 24.065C203.03 23.3713 202.5 22.7954 202.188 22.335L200.533 23.458ZM202.5 25.567L204.51 27.337L205.831 25.836L203.821 24.066L202.5 25.567ZM204.523 27.3484C205.652 28.3086 206.502 29.3035 207.095 30.3275L208.826 29.3254C208.099 28.0695 207.089 26.9044 205.818 25.8245L204.523 27.3484ZM207.095 30.3275C207.652 31.2893 207.95 32.4598 207.95 33.8765H209.95C209.95 32.1731 209.589 30.6436 208.826 29.3254L207.095 30.3275ZM207.95 33.8765C207.95 34.851 207.722 35.7178 207.273 36.4983L209.008 37.4946C209.639 36.3951 209.95 35.1819 209.95 33.8765H207.95ZM207.27 36.5044C206.844 37.2587 206.238 37.8604 205.43 38.3149L206.411 40.0581C207.523 39.4326 208.397 38.5742 209.011 37.4885L207.27 36.5044ZM205.43 38.3149C204.64 38.7592 203.704 38.9965 202.59 38.9965V40.9965C203.997 40.9965 205.281 40.6937 206.411 40.0581L205.43 38.3149Z" fill="#FFF22D"/>
<path d="M47.2835 14.7165H54.4195C57.2569 14.7165 59.4009 15.2178 60.8515 16.2205C62.3022 17.2231 63.0275 19.0045 63.0275 21.5645C63.0275 23.2925 62.8035 24.6685 62.3555 25.6925C61.9075 26.7165 61.0755 27.5165 59.8595 28.0925L63.4115 40.6365H57.4915L54.6435 29.0205H53.0115V40.6365H47.2835V14.7165ZM54.6115 25.7245C55.7635 25.7245 56.5635 25.4258 57.0115 24.8285C57.4809 24.2098 57.7155 23.2925 57.7155 22.0765C57.7155 20.9031 57.5022 20.0285 57.0755 19.4525C56.6489 18.8551 55.9129 18.5565 54.8675 18.5565H53.0115V25.7245H54.6115ZM69.491 14.7165H81.139V18.6205H75.219V25.0525H79.731V29.0205H75.219V36.7645H81.203V40.6365H69.491V14.7165ZM86.8235 14.7165H93.3835C95.6235 14.7165 97.3729 14.9938 98.6315 15.5485C99.8902 16.1031 100.776 16.9778 101.288 18.1725C101.821 19.3458 102.088 20.9245 102.088 22.9085V32.3165C102.088 34.3218 101.821 35.9218 101.288 37.1165C100.776 38.3111 99.8902 39.1965 98.6315 39.7725C97.3942 40.3485 95.6662 40.6365 93.4475 40.6365H86.8235V14.7165ZM93.4475 36.6685C94.2795 36.6685 94.8875 36.5511 95.2715 36.3165C95.6769 36.0605 95.9329 35.7085 96.0395 35.2605C96.1462 34.7911 96.1995 34.1085 96.1995 33.2125V21.9165C96.1995 21.0845 96.1355 20.4551 96.0075 20.0285C95.9009 19.5805 95.6449 19.2498 95.2395 19.0365C94.8555 18.8231 94.2475 18.7165 93.4155 18.7165H92.5515V36.6685H93.4475Z" fill="#D12132"/>
</svg>
