<svg width="48" height="49" viewBox="0 0 48 49" fill="none" xmlns="http://www.w3.org/2000/svg">
<path fill-rule="evenodd" clip-rule="evenodd" d="M26.3793 46.656C26.1889 47.227 25.5684 48.6255 24.0712 48.6255C22.3707 48.6255 21.7772 46.7832 21.7483 46.7077L21.6997 46.531C21.6997 46.531 23.1653 46.6527 23.9723 46.6527C24.7793 46.6527 26.1578 46.5744 26.3837 46.531L26.3793 46.656Z" fill="black"/>
<path fill-rule="evenodd" clip-rule="evenodd" d="M30.8431 45.7476L31.1946 45.7943C30.7775 46.881 30.029 48.0993 28.5585 48.0993C27.1352 48.0993 26.4296 47.2744 26.1284 46.7197L25.8825 46.5688C25.8828 46.5686 28.3444 46.4875 30.8431 45.7476ZM17.3499 45.7476L16.999 45.7943C17.4153 46.881 18.1643 48.0993 19.6354 48.0993C21.0584 48.0993 21.8272 47.2283 22.1427 46.7197L22.3105 46.5688C22.3103 46.5686 19.8492 46.4875 17.3499 45.7476Z" fill="black"/>
<path fill-rule="evenodd" clip-rule="evenodd" d="M25.2642 46.7692C25.0339 47.103 24.8801 47.0874 24.602 47.0874C24.463 47.0874 24.2542 47.2028 24.2608 47.4116C24.2652 47.5753 24.3987 47.7122 24.6256 47.7122C25.1279 47.7122 25.5107 47.0101 25.6184 46.7134C25.6184 46.7134 25.9157 46.7005 26.0025 46.692C26.0025 46.692 25.4697 48.2776 24.0893 48.2776C22.7059 48.2776 22.1426 46.709 22.1426 46.709C22.1426 46.709 23.3065 46.781 23.9736 46.781C24.6408 46.781 25.0644 46.778 25.2642 46.7692ZM30.659 46.0715C29.7564 46.3147 29.1156 46.5112 27.6005 46.6955C27.6005 46.6955 27.6478 46.8522 27.9773 46.8346C28.1039 46.8282 28.1201 46.7969 28.1671 46.7884C28.2605 46.7714 28.4042 46.8695 28.3872 47.0343C28.3748 47.1492 28.2762 47.2945 27.9407 47.2945C27.6052 47.2945 27.2131 47.0198 27.0161 46.7653C27.0161 46.7653 26.8144 46.8115 26.6062 46.8233C26.6062 46.8233 27.2508 47.7265 28.5227 47.7265C29.9223 47.7267 30.4389 46.4763 30.659 46.0715Z" fill="#FFF22D"/>
<path fill-rule="evenodd" clip-rule="evenodd" d="M29.7204 46.9544C29.7204 46.7354 29.6528 46.5326 29.538 46.3647C29.0481 46.4801 28.4878 46.5859 27.6671 46.6879C27.6612 46.7123 27.6558 46.7369 27.6509 46.7615C27.7003 46.8016 27.7962 46.8448 27.9773 46.8351C28.104 46.8288 28.1202 46.7975 28.1672 46.789C28.2606 46.772 28.4043 46.87 28.3873 47.0349C28.3749 47.1498 28.2762 47.2951 27.9408 47.2951C27.8545 47.2951 27.7635 47.277 27.674 47.2451C27.7179 47.3976 27.7957 47.5355 27.8987 47.6504C28.1026 47.7019 28.3121 47.7277 28.5224 47.727C28.9711 47.727 29.3286 47.5987 29.6152 47.4105C29.6846 47.2685 29.7206 47.1125 29.7204 46.9544Z" fill="#FADE2F"/>
<path fill-rule="evenodd" clip-rule="evenodd" d="M29.7061 46.9542C29.7064 46.7448 29.6425 46.5402 29.5231 46.3682C29.0395 46.4808 28.487 46.585 27.683 46.6852C27.6753 46.7134 27.6691 46.7419 27.6643 46.7707C27.7168 46.8078 27.8113 46.8438 27.9778 46.8344C28.1045 46.8281 28.1207 46.7968 28.1677 46.7883C28.2611 46.7712 28.4048 46.8693 28.3878 47.0342C28.3754 47.1491 28.2768 47.2944 27.9413 47.2944C27.8602 47.2944 27.7753 47.2782 27.6912 47.2504C27.7374 47.404 27.8179 47.542 27.9248 47.6563C28.1056 47.7002 28.3053 47.7266 28.5232 47.7266C28.9595 47.7266 29.3099 47.6054 29.5923 47.4255C29.6671 47.2796 29.7061 47.1181 29.7061 46.9542Z" fill="#FBE02F"/>
<path fill-rule="evenodd" clip-rule="evenodd" d="M29.6913 46.9541C29.6913 46.7373 29.6238 46.5362 29.5078 46.3713C29.0314 46.4823 28.4848 46.5848 27.6982 46.6837C27.6897 46.7148 27.682 46.7469 27.6768 46.7794C27.7314 46.8132 27.8238 46.8426 27.9774 46.8346C28.104 46.8283 28.1202 46.7969 28.1672 46.7884C28.2606 46.7714 28.4043 46.8695 28.3873 47.0343C28.3749 47.1492 28.2763 47.2946 27.9408 47.2946C27.8615 47.2935 27.7827 47.2804 27.7073 47.2558C27.7551 47.41 27.8389 47.5487 27.9493 47.6622C28.1238 47.7023 28.3148 47.7265 28.5225 47.7265C28.9465 47.7265 29.2894 47.6116 29.5674 47.4405C29.6491 47.2914 29.6918 47.1241 29.6913 46.9541Z" fill="#FCE22F"/>
<path fill-rule="evenodd" clip-rule="evenodd" d="M17.5346 46.0716C18.4367 46.3147 19.0777 46.5112 20.5928 46.6956C20.5928 46.6956 20.5455 46.8522 20.2161 46.8346C20.0891 46.8283 20.0729 46.7969 20.0259 46.7884C19.9328 46.7714 19.7888 46.8695 19.8064 47.0343C19.8185 47.1492 19.9169 47.2945 20.2523 47.2945C20.5878 47.2945 20.9799 47.0198 21.1767 46.7653C21.1767 46.7653 21.3792 46.8115 21.5874 46.8233C21.5874 46.8233 20.9426 47.7265 19.6707 47.7265C18.271 47.7268 17.7542 46.4763 17.5346 46.0716ZM23.9557 38.632C28.7781 38.632 34.1215 35.6719 37.8679 31.4042C38.2732 30.9432 38.9612 30.0686 40.592 30.0686C42.2224 30.0686 44.3903 31.5545 44.1351 34.2604C43.9493 36.2333 41.1294 40.6793 36.307 43.4201C31.4845 46.1609 27.0438 46.7505 23.9559 46.7505C20.8681 46.7505 16.4273 46.1609 11.6046 43.4201C6.78218 40.6793 3.96253 36.2333 3.77624 34.2604C3.52098 31.5545 5.68889 30.0686 7.31963 30.0686C8.95037 30.0686 9.63866 30.9435 10.0437 31.4042C13.7901 35.6719 19.1332 38.632 23.9557 38.632Z" fill="#FFF22D"/>
<path d="M23.9557 38.4584C26.2923 38.4584 28.7556 37.7534 31.0974 36.5367C33.5376 35.2692 35.8435 33.4483 37.738 31.2903C37.9468 31.0532 38.2273 30.7092 38.676 30.4187C39.1275 30.1264 39.7375 29.895 40.592 29.895C40.6805 29.895 40.775 29.9 40.8742 29.909C41.6603 29.9835 42.5244 30.3635 43.191 31.0251C43.8581 31.6873 44.3294 32.6303 44.3294 33.8286C44.3294 33.9698 44.3225 34.119 44.3074 34.2767C44.2005 35.4096 43.2594 37.3233 41.5963 39.2698C40.2911 40.7967 38.5384 42.3508 36.3927 43.5699C33.9649 44.9495 31.6332 45.7884 29.5203 46.2816C25.8599 47.1369 22.0517 47.1369 18.3914 46.2816C16.2787 45.7884 13.947 44.9495 11.5192 43.5699C9.37354 42.3505 7.6208 40.7964 6.31565 39.2698C4.65249 37.3233 3.71114 35.4096 3.60426 34.2767C3.58993 34.1278 3.5826 33.9782 3.58228 33.8286C3.58228 32.6303 4.0535 31.6873 4.72091 31.0251C5.38722 30.3635 6.25108 29.9835 7.03692 29.909C7.13666 29.9 7.23118 29.895 7.31965 29.895C8.17363 29.895 8.78444 30.1264 9.23533 30.4187C9.6843 30.7092 9.96511 31.0532 10.1737 31.2903C12.0682 33.4483 14.3746 35.2689 16.8142 36.5367C19.1561 37.7534 21.6188 38.4584 23.9557 38.4584ZM23.9557 38.8052C21.5619 38.8052 19.0442 38.0861 16.654 36.8447C14.1781 35.5582 11.8371 33.7091 9.91318 31.5183C9.71672 31.2947 9.45102 30.9705 9.04684 30.7086C8.64485 30.4484 8.09614 30.2423 7.31938 30.2423C7.2359 30.2422 7.15247 30.246 7.06934 30.2536C6.35714 30.3206 5.57241 30.6674 4.96463 31.2705C4.35767 31.8731 3.92903 32.7328 3.92903 33.8289C3.92903 33.9679 3.93535 34.1064 3.94826 34.2443C4.04938 35.3164 4.96215 37.1541 6.57833 39.0453C7.86039 40.5453 9.58236 42.0721 11.6898 43.2698C14.0847 44.6308 16.385 45.4578 18.47 45.9444C20.2683 46.3647 22.1089 46.577 23.9557 46.5772C25.8025 46.577 27.6431 46.3647 29.4414 45.9444C31.5269 45.4578 33.827 44.6308 36.2215 43.2698C38.329 42.0721 40.0512 40.5453 41.3333 39.0448C42.9498 37.1535 43.8625 35.3167 43.9634 34.2443C43.9763 34.1069 43.9826 33.9679 43.9826 33.8289C43.9826 32.7331 43.5537 31.8733 42.9467 31.2705C42.3392 30.6674 41.5542 30.3206 40.842 30.2536C40.7589 30.246 40.6755 30.2423 40.592 30.2423C39.8155 30.2423 39.2665 30.4484 38.8645 30.7086C38.4603 30.9705 38.1944 31.2947 37.9985 31.5183C36.0745 33.7091 33.7338 35.5582 31.2576 36.8441C28.8677 38.0861 26.3497 38.8052 23.9557 38.8052Z" fill="black"/>
<path fill-rule="evenodd" clip-rule="evenodd" d="M9.50188 31.8279L9.44556 31.7642C9.06171 31.3235 8.5358 30.7192 7.27984 30.7192C6.54732 30.7192 5.71779 31.1111 5.16661 31.7169C4.75446 32.1692 4.28708 32.9646 4.40194 34.1808C4.55855 35.8423 7.19686 40.1514 11.8951 42.8219C15.6819 44.9739 19.7262 46.0655 23.9161 46.0655C28.1061 46.0655 32.1501 44.9739 35.9372 42.8219C40.6352 40.1514 43.2737 35.8423 43.4304 34.1808C43.5447 32.9646 43.0778 32.1695 42.6651 31.7169C42.1145 31.1111 41.2844 30.7192 40.5524 30.7192C39.2968 30.7192 38.7709 31.3235 38.3865 31.7642L38.3307 31.8279C34.293 36.4264 28.7696 39.2826 23.9161 39.2826C19.0629 39.2826 13.5393 36.4267 9.50188 31.8279Z" fill="#C23227"/>
<path fill-rule="evenodd" clip-rule="evenodd" d="M39.4478 26.4042C39.4478 24.0904 41.3228 22.2146 43.6368 22.2146C45.9509 22.2146 47.8265 24.0904 47.8265 26.4042C47.8265 28.7178 45.9509 30.5933 43.6368 30.5933C41.3228 30.5933 39.4478 28.7178 39.4478 26.4042Z" fill="#FFF22D"/>
<path d="M39.2739 26.4041C39.2739 25.1992 39.7622 24.1084 40.5521 23.3187C41.341 22.529 42.4321 22.0408 43.6369 22.0408C44.8418 22.0408 45.9326 22.529 46.7223 23.3187C47.512 24.1084 48 25.1992 48 26.4041C48 27.6089 47.5117 28.6995 46.7223 29.4889C45.9329 30.2783 44.8418 30.7665 43.6369 30.7665C42.4321 30.7665 41.3416 30.2783 40.5521 29.4889C40.1463 29.0843 39.8244 28.6035 39.605 28.0741C39.3856 27.5447 39.2731 26.9771 39.2739 26.4041ZM39.621 26.4041C39.621 27.5127 40.0708 28.5167 40.7972 29.2435C41.5237 29.9703 42.528 30.4198 43.6367 30.4198C44.7454 30.4198 45.7494 29.97 46.4767 29.2435C46.8501 28.871 47.1463 28.4284 47.3481 27.9412C47.55 27.4539 47.6536 26.9315 47.6529 26.4041C47.6536 25.8766 47.5501 25.3542 47.3482 24.8668C47.1463 24.3795 46.8501 23.9368 46.4767 23.5644C45.7496 22.8376 44.7454 22.3881 43.6367 22.3881C42.528 22.3881 41.524 22.8376 40.7972 23.5644C40.4237 23.9368 40.1274 24.3794 39.9256 24.8668C39.7237 25.3541 39.6202 25.8766 39.621 26.4041Z" fill="black"/>
<path fill-rule="evenodd" clip-rule="evenodd" d="M0.17334 26.4108C0.17334 24.0975 2.04917 22.2217 4.36298 22.2217C6.67652 22.2217 8.55235 24.0975 8.55235 26.4108C8.55235 28.7249 6.67652 30.6004 4.36298 30.6004C2.04917 30.6004 0.17334 28.7249 0.17334 26.4108Z" fill="#FFF22D"/>
<path d="M0 26.4108C0 25.2065 0.488261 24.1157 1.27794 23.326C1.68267 22.9203 2.16356 22.5986 2.693 22.3794C3.22243 22.1601 3.78998 22.0476 4.36302 22.0483C5.5676 22.0483 6.65842 22.5369 7.44783 23.326C7.85352 23.7307 8.17523 24.2115 8.3945 24.7409C8.61376 25.2703 8.72625 25.8378 8.7255 26.4108C8.7255 27.6157 8.23724 28.7065 7.44783 29.4962C7.04319 29.9019 6.56236 30.2237 6.03297 30.4431C5.50358 30.6625 4.93606 30.775 4.36302 30.7744C3.15817 30.7744 2.06762 30.2856 1.27794 29.4962C0.488261 28.7068 0 27.6154 0 26.4108ZM0.346756 26.4108C0.346035 26.9384 0.449583 27.4608 0.65145 27.9482C0.853316 28.4356 1.14952 28.8783 1.52303 29.2508C1.89553 29.6243 2.33817 29.9205 2.8255 30.1223C3.31284 30.3242 3.83526 30.4278 4.36275 30.4271C5.47171 30.4271 6.47543 29.9773 7.20219 29.2508C7.5757 28.8783 7.8719 28.4356 8.07377 27.9482C8.27564 27.4608 8.37919 26.9384 8.37846 26.4108C8.37846 25.3021 7.92895 24.2981 7.20219 23.5714C6.47543 22.8446 5.47171 22.3951 4.36275 22.3951C3.83526 22.3944 3.31284 22.498 2.8255 22.6998C2.33817 22.9017 1.89553 23.1979 1.52303 23.5714C1.14961 23.9439 0.85346 24.3865 0.651597 24.8737C0.449735 25.361 0.346137 25.8834 0.346756 26.4108Z" fill="black"/>
<path fill-rule="evenodd" clip-rule="evenodd" d="M44.784 15.136L44.8071 14.0141C45.1495 14.2727 45.8015 14.2828 46.1832 13.8751C46.3587 13.6888 46.4568 13.4044 46.4412 13.1071C46.4196 12.7594 46.2714 12.4316 46.0246 12.1858C44.6137 10.8109 43.3665 9.43649 43.3665 9.43649C43.2404 9.23316 43.0327 9.08286 42.9195 9.0323C42.7428 8.95372 42.1328 8.67456 41.6674 9.38236C41.2456 10.0239 41.3083 10.9318 41.3841 11.2615L42.7079 13.0601C43.1594 13.6324 44.4318 14.8524 44.784 15.136ZM16.5757 3.46965C18.2391 2.91215 19.7572 2.45192 21.8039 2.27002L16.5757 3.46965Z" fill="black"/>
<path fill-rule="evenodd" clip-rule="evenodd" d="M16.5755 3.47444C18.2389 2.91611 19.757 2.4567 21.8037 2.27453L22.1156 2.09841C20.9712 1.19882 19.8358 0.586914 18.7057 0.586914C17.996 0.586914 16.5535 1.06831 16.2292 3.61265L16.5755 3.47444ZM31.3406 3.47444C29.6769 2.91611 28.1593 2.4567 26.1126 2.27453L25.8007 2.09841C26.9449 1.19882 28.0799 0.586914 29.21 0.586914C29.92 0.586914 31.3631 1.06831 31.6868 3.61265L31.3406 3.47444ZM22.5928 2.01872C22.9311 2.00141 23.7117 1.9841 24.0241 1.9841C24.336 1.9841 25.1985 2.02532 25.3872 2.03961L22.5928 2.01872Z" fill="black"/>
<path fill-rule="evenodd" clip-rule="evenodd" d="M22.0774 2.18797C22.9141 0.584154 23.6807 0 24.1046 0C24.6349 0 25.2559 0.844084 25.7425 1.93024L25.8456 2.17478L25.4221 2.13988C25.1339 2.08823 24.336 2.07944 24.0241 2.07944C23.7117 2.07944 23.0352 2.07944 22.6275 2.11406L22.0774 2.18797Z" fill="black"/>
<path fill-rule="evenodd" clip-rule="evenodd" d="M20.4405 40.1639L19.6915 42.9583L18.2951 39.5894L17.426 39.3564L16.3671 43.3078L17.3098 43.5606L18.0646 40.7437L19.4832 44.1428L20.33 44.3698L21.3887 40.4178L20.4405 40.1639ZM23.6954 40.6632L22.6213 40.6069L22.4075 44.6918L23.4813 44.7482L23.6954 40.6632ZM24.6598 40.6283L24.7351 41.1666L25.8809 41.005L26.3746 44.5179L27.4396 44.3682L26.9456 40.8558L28.0741 40.697L27.999 40.1593L24.6598 40.6283ZM35.7417 38.9629C36.2618 39.8746 36.1571 40.5379 35.3548 41.0012L34.9743 41.2207L33.4699 38.6162L33.881 38.3785C34.8413 37.8243 35.3828 38.3175 35.7417 38.9629ZM33.6493 37.8828L32.2631 38.683L34.3154 42.2379L35.6914 41.4435C37.1232 40.6165 37.2557 39.3688 36.6943 38.3722C36.0165 37.1866 34.9037 37.1588 33.6493 37.8828ZM31.0525 42.916L30.6442 41.6598L31.8565 41.2658L31.6864 40.7432L30.4744 41.1369L30.1257 40.0642L31.3713 39.66L31.2034 39.1429L28.9299 39.8818L30.1939 43.7719L32.7011 42.9578L32.531 42.4352L31.0525 42.916ZM15.4892 38.4087L14.2777 40.594C13.9123 41.2528 13.5356 41.6699 12.9193 41.3141C12.3077 40.9756 12.4492 40.47 12.8234 39.7944L14.0373 37.6037L13.0591 37.0616L11.7768 39.3745C11.0696 40.6508 11.9615 41.4369 12.6528 41.82C13.3971 42.2327 14.478 42.5396 15.1792 41.2743L16.4671 38.9506L15.4892 38.4087ZM14.7962 14.3801V33.5341L23.9556 39.4218L33.1146 33.5341L33.1265 14.4103C32.836 14.1504 32.2261 13.5814 31.7458 13.2874H16.1233C15.7241 13.5671 14.9317 14.2328 14.7962 14.3801Z" fill="#FFF22D"/>
<path d="M14.9696 14.3801V33.4399L23.9556 39.2163L32.9415 33.4399L32.9528 14.4104H33.3001L33.2883 33.5341V33.6281L33.2083 33.6797L24.049 39.5677L23.9556 39.6279L23.8619 39.5677L14.7028 33.6797L14.6226 33.6281V14.3801H14.9696Z" fill="black"/>
<path d="M33.0105 14.5399C32.9278 14.4657 32.9901 14.5209 32.9025 14.4418H32.9014C32.589 14.1593 32.0653 13.6862 31.6548 13.435L31.8356 13.1396C32.2788 13.4114 32.8148 13.8955 33.1349 14.1843H33.1339L33.2424 14.281L33.0105 14.5399Z" fill="black"/>
<path d="M31.7457 13.461H16.1233V13.1143H31.7457V13.461Z" fill="black"/>
<path d="M16.2228 13.4297C16.0357 13.561 15.7716 13.7687 15.5301 13.9674C15.2474 14.2004 14.9921 14.4224 14.9234 14.4974L14.6687 14.263C14.7451 14.1792 15.0149 13.9438 15.3106 13.7003C15.5675 13.4888 15.8414 13.2725 16.0233 13.145L16.2228 13.4297Z" fill="black"/>
<path fill-rule="evenodd" clip-rule="evenodd" d="M24.6027 22.5726C24.539 22.5446 24.3109 22.7284 24.2068 22.8933C24.1026 23.0582 24.0721 23.2706 24.2197 23.3486C24.3672 23.4266 24.553 23.3255 24.5975 23.0669C24.623 22.915 24.6725 22.6029 24.6027 22.5726ZM22.8494 23.0667C22.8876 23.3266 23.0791 23.4266 23.2267 23.3483C23.3742 23.2703 23.344 23.0579 23.2399 22.893C23.1354 22.7282 22.9209 22.5443 22.8568 22.5724C22.7873 22.6029 22.8277 22.9194 22.8494 23.0667ZM23.7688 25.6146C24.0765 25.1096 24.2046 24.5848 24.2046 24.5848H23.3242C23.3242 24.5848 23.4652 25.1225 23.7688 25.6146ZM23.9205 21.8206L24.6316 20.5831L25.1866 21.8206H26.1065C25.5512 22.3413 25.3256 23.1274 25.3256 23.6481V24.2204C25.3256 24.4636 25.2044 24.8623 25.2044 24.8623C25.2044 24.8623 26.0007 25.4709 26.1238 25.5734C26.1757 25.6168 26.2307 25.6421 26.193 25.7473C26.1299 25.9264 25.5916 26.1663 25.5342 26.2152C25.413 26.3194 25.38 26.3875 25.4155 26.4933C25.4504 26.5969 25.5512 26.6145 25.7595 26.5449C25.9677 26.4757 26.4013 26.2504 26.7662 26.0941C27.13 25.938 27.6158 25.9723 27.6158 25.9723V25.2791H26.2458V23.0584L26.0026 22.6707L26.6101 21.595L27.2166 22.6768L26.9739 23.0582V24.2204H27.6765V23.0582L27.4339 22.6768L28.0409 21.6008L28.6478 22.6768L28.4052 23.0582V24.2204H29.1078V23.0582L28.8652 22.6768L29.4721 21.6008L30.0791 22.6768L29.8359 23.0582L29.8433 25.2772L28.4656 25.2777V26.2974C28.7781 26.5919 29.0732 27.2563 29.0732 27.655C29.0732 28.0542 28.8129 28.2276 28.8129 28.2276C28.8992 28.54 28.8822 28.6697 28.8473 28.9563C28.8118 29.2487 28.4481 29.7017 28.4481 29.7017V34.991C28.4481 35.3512 27.6158 35.3169 27.6158 35.0086V29.8235C27.1473 29.3033 25.8636 28.9041 25.8636 28.9041C25.3951 29.372 25.1006 30.1878 25.1006 30.1878C25.3089 30.3268 25.6213 30.1878 25.7424 30.0488C25.8636 29.9103 26.1068 29.8754 26.2458 29.9619C26.3843 30.0488 26.4192 30.0837 26.367 30.2919C26.315 30.4997 26.2279 30.8453 26.2279 31.0877C26.2279 31.3308 26.506 31.2781 26.7137 31.2959C27.1303 31.3308 27.1995 31.7988 27.1652 32.059C27.1303 32.3192 27.0091 32.8747 27.0091 33.2212C27.0091 33.5677 27.0261 33.915 27.061 34.1063C27.0954 34.2967 27.1652 34.5049 27.1473 34.7481C27.1237 35.077 26.922 35.1298 26.7137 34.9215C26.506 34.7132 23.6086 31.6254 23.6086 31.6254C23.4179 32.2494 24.2156 33.3256 24.476 33.6551C24.7362 33.9851 24.7187 34.2277 24.4936 34.453C24.2678 34.6783 23.8342 34.7998 23.7476 35.0083C23.6608 35.2166 23.9559 35.8406 24.5629 36.6209C25.1698 37.4018 23.8688 37.9222 23.0882 38.0786C22.3076 38.2346 22.3076 37.6964 22.3598 37.4018C22.4114 37.1067 22.4114 36.9333 22.3944 36.6731C22.3771 36.4135 22.1342 36.0491 21.8045 35.6147C21.4748 35.1817 21.4748 34.7825 21.6138 33.7763C21.7525 32.7706 21.7179 32.1282 21.7179 32.1282C21.7179 32.1282 21.3709 32.1458 20.8678 32.1282C20.3647 32.1112 19.9484 31.818 19.9138 30.6035C19.8792 29.3891 19.8503 26.4927 19.7693 26.1916C19.6885 25.891 19.3646 25.833 19.2258 25.7987C19.087 25.7638 19.0769 25.5555 19.2156 25.4863C19.577 25.3055 20.0122 24.8617 19.8503 24.5842C19.6885 24.3064 19.0524 24.3641 18.6246 24.5724C18.1968 24.7807 17.7456 25.2313 17.63 25.3591C17.5143 25.4863 17.4217 25.4863 17.4332 25.3472C17.4448 25.2082 17.3524 24.5493 17.2947 24.318C17.237 24.0866 17.0285 23.6475 16.9592 23.5319C16.89 23.4162 16.9593 23.37 17.0749 23.4162C17.1906 23.4626 17.445 23.5667 17.6879 23.636C17.9308 23.7052 18.1619 23.5898 18.2776 23.3585C18.3933 23.1271 18.6128 22.6301 18.7285 22.4103C18.8441 22.1904 19.0293 22.2366 19.1796 22.2715C19.3302 22.3061 19.469 22.3987 19.6074 22.4564C19.7462 22.5144 19.8619 22.5029 19.908 22.4333C19.9545 22.3641 20.0125 22.3407 20.0932 22.1671C20.174 21.9937 20.2782 22.0748 20.2897 22.144C20.7043 24.632 21.7817 24.7463 21.7817 24.7463C21.6198 25.1623 21.2382 25.8218 21.1459 25.9839C21.0533 26.1454 21.0186 26.365 20.9956 26.5389C20.9725 26.7123 21.0533 28.3537 21.1689 28.956C21.2849 29.5572 21.655 29.3264 21.7704 29.1412C21.8858 28.956 22.2447 28.193 22.2447 28.193C22.2447 28.193 22.3373 27.9847 22.3373 27.8108C22.3373 27.6374 22.0364 27.2558 21.9669 27.1401C21.8976 27.0247 21.6432 26.7933 21.6432 26.215C21.6432 25.6368 22.1636 25.2318 22.3488 25.0815C22.5337 24.9312 22.5337 24.7235 22.5106 24.5963C22.4293 24.1487 21.9553 23.2082 21.7242 22.8496C21.4929 22.4913 21.042 21.8088 21.042 21.8088H21.9787L22.5801 20.5597L23.2393 21.8146L23.9205 21.8206ZM27.6155 28.1235V27.4124C27.6155 27.4124 27.4246 27.1173 26.9561 27.1173C26.4881 27.1173 26.2106 27.2563 26.2106 27.3775C26.2106 27.5687 26.6269 28.1235 27.6155 28.1235ZM15.5134 19.1576H32.4116V20.3102H15.5134V19.1576ZM15.5134 18.5652V13.9744H32.4116V18.5652H15.5134Z" fill="#C23227"/>
<path fill-rule="evenodd" clip-rule="evenodd" d="M29.0858 18.702V17.9183H27.8584V17.413H28.8602V15.1927H27.9406L27.6281 14.5857L27.3157 15.1927H26.3966V17.413H27.3979V17.9183H24.9937V17.413H25.9952V15.1927H25.0758L24.7634 14.5857L24.4513 15.1927H23.5319V17.413H24.5332V17.9183H22.082V17.413H23.0835V15.1927H22.1639L21.8517 14.5857L21.5396 15.1927H20.6199V17.413H21.6212V17.9183L19.6833 17.9236L17.7522 17.4724L18.1415 18.702H29.0858Z" fill="#FFF22D"/>
<path fill-rule="evenodd" clip-rule="evenodd" d="M18.419 17.3728L19.714 17.691L20.4086 15.7412L20.4089 15.2497L18.419 17.3728ZM21.5439 2.14632C19.5378 2.32465 18.3033 2.75109 16.6729 3.2976C16.794 2.59612 16.9572 2.1804 17.2405 1.76742C17.2177 2.13011 17.5139 2.51644 18.1033 2.51644C18.6927 2.51644 19.0207 2.17655 19.0207 1.9724C19.0207 1.76879 18.8968 1.47369 18.5795 1.47369C18.2621 1.47369 18.1942 1.70038 18.2168 1.79105C18.2396 1.882 18.1714 1.90453 18.081 1.92733C17.9901 1.94987 17.7409 1.81358 17.8315 1.4965C17.931 1.14782 18.3528 0.958232 18.8512 0.958232C18.8509 0.957683 20.0374 0.910423 21.5439 2.14632ZM31.258 3.31161C29.6276 2.76455 28.3375 2.33839 26.3315 2.15979C27.2549 1.51628 28.1174 0.969773 29.0651 0.969773C29.5635 0.969773 29.9856 1.15936 30.0848 1.50804C30.1754 1.8254 29.926 1.96113 29.8353 1.93833C29.7452 1.91552 29.677 1.89299 29.6995 1.80232C29.7221 1.71192 29.6539 1.48496 29.3369 1.48496C29.0198 1.48496 28.8959 1.77951 28.8959 1.98366C28.8959 2.18781 29.2236 2.5277 29.813 2.5277C30.4024 2.5277 30.6986 2.1411 30.6761 1.77869C30.9591 2.19194 31.1368 2.61013 31.258 3.31161ZM22.7801 1.77347C22.7262 1.85947 22.679 1.92349 22.6213 2.01938C23.0885 1.99959 23.556 1.98814 24.0237 1.98504C24.3301 1.98504 25.1747 2.02598 25.3599 2.03944C25.0609 1.3473 24.4968 0.391663 24.1028 0.391663C24.0251 0.391663 23.8531 0.351273 23.5294 0.723856C23.5294 0.723856 23.4791 0.888442 23.6846 0.856843C23.9451 0.817002 24.0437 1.086 24.0245 1.21981C23.9789 1.53112 23.6165 1.83172 23.2535 1.83172C22.8911 1.83172 22.7801 1.77347 22.7801 1.77347Z" fill="#FFF22D"/>
<path fill-rule="evenodd" clip-rule="evenodd" d="M5.30678 13.0602L6.6306 11.2615C6.70671 10.9318 6.76936 10.024 6.34732 9.3824C5.88187 8.6746 5.27133 8.95376 5.09466 9.03235C4.98145 9.0829 4.77428 9.2332 4.64761 9.43653C4.64761 9.43653 3.37764 10.84 1.97248 12.2213C1.77712 12.4131 1.55676 12.7763 1.5389 13.1069C1.52242 13.4042 1.63919 13.7006 1.81394 13.8869C2.19614 14.2941 2.86548 14.2727 3.20729 14.0141L3.23037 15.136C3.58372 14.8525 4.85561 13.6325 5.30678 13.0602Z" fill="black"/>
<path fill-rule="evenodd" clip-rule="evenodd" d="M23.9559 10.4392C31.4963 10.4392 35.7901 17.52 36.7234 18.7638C38.3891 20.9842 40.4232 22.7848 42.7834 22.1869C46.2524 21.3082 46.0677 16.1678 46.0677 16.1678C45.2354 15.5661 43.8072 14.8086 41.2104 11.1253C38.666 7.51734 32.9067 2.16406 23.9559 2.16406C15.0045 2.16406 9.24512 7.51734 6.70105 11.1253C4.10423 14.8083 2.67654 15.5661 1.844 16.1678C1.844 16.1678 1.65908 21.3082 5.12856 22.1869C7.48853 22.7848 9.52318 20.9842 11.1885 18.7638C12.1214 17.52 16.4157 10.4392 23.9559 10.4392Z" fill="#FFF22D"/>
<path d="M23.9558 10.2659C30.9673 10.2659 35.1924 16.2877 36.5671 18.247C36.6915 18.4245 36.7929 18.5688 36.8616 18.66C37.6826 19.7552 38.5935 20.746 39.5862 21.3865C40.5591 22.0146 41.6137 22.3045 42.7411 22.019C45.8215 21.2387 45.9009 16.9174 45.8951 16.2574C45.8292 16.2105 45.7561 16.1602 45.6794 16.1074C44.8068 15.5051 43.4041 14.5374 41.0686 11.2248C39.6084 9.15362 37.0789 6.50239 33.4861 4.63645C30.8725 3.2791 27.6957 2.33748 23.9555 2.33748C20.2154 2.33748 17.038 3.2791 14.4247 4.63645C10.8318 6.50239 8.30289 9.15334 6.84251 11.2248C4.50644 14.5379 3.10403 15.5054 2.23082 16.1077C2.15444 16.1604 2.0819 16.2105 2.01568 16.2572C2.00991 16.9169 2.08932 21.2381 5.17 22.0187C6.29765 22.3045 7.35165 22.0143 8.32488 21.3862C9.31733 20.7458 10.2282 19.7549 11.0497 18.6597C11.1182 18.5685 11.2195 18.4242 11.344 18.247C12.7192 16.2879 16.9446 10.2659 23.9558 10.2659ZM23.9558 10.6129C17.1243 10.6129 12.9767 16.5234 11.6276 18.4465C11.5292 18.5882 11.4289 18.7285 11.3267 18.8674C10.4829 19.9926 9.54347 21.0126 8.51254 21.678C7.46211 22.3559 6.3188 22.6675 5.08647 22.3551C1.47989 21.4415 1.67003 16.1783 1.67057 16.1629L1.67305 16.078L1.74311 16.0272C1.83791 15.9588 1.93243 15.8934 2.03492 15.823C2.88807 15.2342 4.25888 14.289 6.55977 11.0256C8.04434 8.92034 10.6151 6.22543 14.2667 4.32899C16.9251 2.94829 20.1558 1.99072 23.9561 1.99072C27.7561 1.99072 30.9868 2.94829 33.6455 4.32899C37.2968 6.22543 39.8678 8.92006 41.3524 11.0256C43.653 14.2882 45.0235 15.2342 45.8764 15.8225C45.9789 15.8931 46.074 15.9588 46.1688 16.0272L46.2391 16.078L46.2413 16.1629C46.2419 16.178 46.4317 21.4415 42.8254 22.3551C41.5934 22.6672 40.4501 22.3556 39.3999 21.678C38.3684 21.0126 37.4293 19.9926 36.5852 18.8674C36.5003 18.7545 36.4038 18.616 36.284 18.4465C34.9347 16.5234 30.7873 10.6129 23.9558 10.6129Z" fill="black"/>
<path fill-rule="evenodd" clip-rule="evenodd" d="M23.9558 9.77124C31.2247 9.77124 35.5506 15.9373 36.9734 17.9634C37.0661 18.0979 37.1608 18.2311 37.2572 18.3629C39.1806 20.927 40.935 21.9662 42.619 21.5395C45.0548 20.9224 45.3543 17.5702 45.3881 16.5574L45.3892 16.5192L45.3582 16.4978C44.5017 15.9068 43.0666 14.9179 40.6646 11.5102C39.229 9.47449 33.7814 2.83228 23.9558 2.83228C14.1301 2.83228 8.68285 9.47449 7.2472 11.5102C4.86112 14.8937 3.36392 15.9274 2.5594 16.483L2.52808 16.5044L2.52918 16.5426C2.56407 17.5592 2.86659 20.9246 5.29223 21.5395C6.97682 21.9665 8.73066 20.927 10.6535 18.3629C10.7238 18.2695 10.823 18.128 10.9381 17.9637C12.3601 15.9373 16.6863 9.77124 23.9558 9.77124Z" fill="#C23227"/>
<path fill-rule="evenodd" clip-rule="evenodd" d="M8.31599 12.6114L7.55709 13.5157L8.9801 16.4571L5.92662 15.4591L5.27295 16.2378L8.40694 18.8673L8.88036 18.3032L6.66794 16.4395L9.63542 17.4037L9.94728 17.0322L8.53333 14.198L10.7587 16.0647L11.4497 15.241L8.31599 12.6114ZM12.2779 11.9957L11.5681 12.7565L10.8411 11.3514L12.2779 11.9957ZM10.6246 10.1388L9.92695 10.8867L11.8866 14.784L12.365 14.2713L11.8327 13.2396L12.7812 12.2224L13.8514 12.6768L14.6408 11.8306L10.6246 10.1388ZM15.4096 6.43606L16.9428 8.88946L13.5264 7.61289L12.7628 8.08989L14.931 11.5591L15.7586 11.0423L14.2133 8.5688L17.6669 9.84977L18.4101 9.38486L16.2425 5.91593L15.4096 6.43606ZM28.3567 8.44488L28.7867 7.19607L29.9915 7.61124L30.1707 7.09138L28.9658 6.67676L29.3324 5.61012L30.5705 6.03655L30.7477 5.52246L28.4872 4.7446L27.1556 8.61222L29.6481 9.47031L29.8267 8.95101L28.3567 8.44488ZM35.3541 8.18633L34.9854 8.58611L35.8457 9.36041L33.4723 11.9971L34.2713 12.7164L36.6447 10.0803L37.4921 10.8425L37.8556 10.4389L35.3541 8.18633ZM36.5285 14.3287L37.5399 13.4805L38.359 14.4562L38.7797 14.1029L37.9611 13.1269L38.8247 12.4021L39.6666 13.4053L40.0826 13.0557L38.5467 11.2244L35.4127 13.8542L37.1069 15.8732L37.5275 15.5201L36.5285 14.3287ZM41.2688 15.3707C41.5537 15.6875 41.5548 16.0644 41.2289 16.3576C40.9031 16.6508 40.4931 16.5879 40.1804 16.2403L39.9963 16.0361L41.03 15.1058L41.2688 15.3707ZM40.7239 17.3863C40.7319 17.3951 41.3572 17.7051 42.0477 17.083C42.6253 16.5629 42.431 15.8493 41.8287 15.1802L40.714 13.943L37.674 16.6802L38.3936 17.4792L39.6007 16.392L39.957 16.7871L39.1874 18.5096L40.1013 19.2446L40.7239 17.3863ZM25.3381 4.40169L25.3087 6.07255L23.7016 6.0448L23.731 4.37339L22.6558 4.35498L22.5846 8.44488L23.6595 8.46384L23.6922 6.59378L25.2988 6.62208L25.2661 8.4916L26.3421 8.51055L26.413 4.4201L25.3381 4.40169ZM31.1612 10.4812C31.9237 10.9392 32.7573 10.8659 33.1453 10.2202C33.4308 9.76899 33.433 9.39613 33.0934 8.72899C33.0021 8.53556 32.89 8.39927 32.8131 8.22809C32.6644 7.94508 32.5254 7.7162 32.657 7.49776C32.7977 7.26366 33.1261 7.2469 33.4261 7.42715C33.741 7.61646 33.8709 7.92997 33.9344 8.14786L34.4298 7.93354C34.2779 7.53046 34.0531 7.16694 33.5448 6.86168C32.6699 6.33605 31.9569 6.47481 31.6607 6.96829C31.3612 7.46644 31.4461 7.87777 31.6687 8.30201C31.6687 8.30201 31.8118 8.54737 31.8951 8.70811C32.0905 9.04003 32.3191 9.4541 32.1603 9.71843C31.9649 10.0438 31.6242 10.116 31.2961 9.91214C30.8754 9.64507 30.7771 9.33705 30.6886 9.03508L30.1459 9.26946C30.2657 9.67996 30.5463 10.1116 31.1612 10.4812ZM20.0092 4.61601C18.6698 4.90122 17.7924 5.88406 18.0818 7.2164C18.2466 7.93547 18.8912 9.26506 20.9237 8.83286C21.4858 8.72542 21.7936 8.49737 22.09 8.21683L21.7158 7.78984C21.5798 7.94536 21.3682 8.17149 20.9009 8.27068C19.9194 8.47951 19.333 7.68076 19.1871 6.99357C18.9712 5.97775 19.5633 5.27243 20.2389 5.129C20.7126 5.02816 21.0047 5.15345 21.1894 5.22846L21.1951 5.22736L21.3196 4.70586C20.9962 4.57534 20.6099 4.48879 20.0092 4.61601ZM41.6958 11.419C41.6394 11.1763 41.56 10.1402 41.9535 9.59341C42.3167 9.08949 42.6478 9.26012 42.8256 9.33898C42.9056 9.37442 43.1454 9.52994 43.1927 9.83658C43.218 10.0012 43.1663 10.2446 43.0391 10.4232C42.7902 10.7466 42.2239 10.9612 42.2239 10.9612C42.2239 10.9612 42.9495 12.3828 44.4874 13.7946L44.4819 14.7541C42.3764 12.7236 41.6958 11.419 41.6958 11.419Z" fill="#FFF22D"/>
<path fill-rule="evenodd" clip-rule="evenodd" d="M42.7521 11.1255C42.9604 11.4843 43.489 12.3622 44.8123 13.6022C45.0319 13.808 45.5792 13.9795 45.8883 13.6324C46.007 13.4989 46.0826 13.3085 46.0708 13.087C46.0567 12.8326 45.9001 12.5356 45.7493 12.4062C45.4852 12.1797 44.3474 11.0307 43.5319 10.1281C43.5143 10.2926 43.3703 10.5677 43.3703 10.5677C43.261 10.7221 43.1241 10.9438 42.7521 11.1255ZM3.53162 14.6963L3.52612 13.7902C5.06454 12.3781 5.79103 10.9612 5.79103 10.9612C5.79103 10.9612 5.22473 10.7466 4.97579 10.4232C4.8483 10.2446 4.79637 10.0008 4.82192 9.83653C4.86973 9.52989 5.10906 9.37465 5.18874 9.33893C5.36651 9.26007 5.69761 9.08916 6.0603 9.59336C6.45404 10.1401 6.351 11.1691 6.29495 11.4118C6.2955 11.4118 5.57836 12.6609 3.53162 14.6963Z" fill="#FFF22D"/>
<path fill-rule="evenodd" clip-rule="evenodd" d="M5.23656 11.1258C5.02884 11.4847 4.49991 12.3625 3.17663 13.6026C2.95709 13.8084 2.40976 13.9798 2.1012 13.6328C1.98222 13.4993 1.90639 13.3088 1.9182 13.0874C1.93194 12.8329 2.08883 12.5359 2.23968 12.4065C2.50373 12.1801 3.64154 11.031 4.4565 10.1284C4.47436 10.293 4.61834 10.568 4.61834 10.568C4.72797 10.7225 4.86508 10.9442 5.23656 11.1258Z" fill="#FFF22D"/>
<path fill-rule="evenodd" clip-rule="evenodd" d="M0.961914 26.4458C0.961914 24.5636 2.48769 23.0378 4.36957 23.0378C6.252 23.0378 7.7775 24.5636 7.7775 26.4458C7.7775 28.3285 6.25172 29.8534 4.36957 29.8534C2.48769 29.8534 0.961914 28.3282 0.961914 26.4458Z" fill="#C23227"/>
<path fill-rule="evenodd" clip-rule="evenodd" d="M6.20263 23.9779C6.26116 24.0246 6.40898 24.146 6.40898 24.146C6.70436 24.4104 6.97033 24.7195 7.12448 25.0893C7.31956 25.5545 6.71865 26.2538 6.54279 26.4181C5.74789 27.1597 5.25386 27.1473 4.97003 27.1883C4.68592 27.2284 4.50705 27.0531 4.51309 26.8404C4.53123 26.2148 4.9747 25.1484 5.09972 24.9514C5.1816 24.8225 5.32256 24.7404 5.32256 24.7404C5.61573 24.6582 5.90011 24.5321 6.04766 24.365C6.19576 24.1982 6.20263 23.9779 6.20263 23.9779ZM3.3511 23.5281C3.67424 23.4192 4.01276 23.363 4.35373 23.3616C4.88623 23.3616 5.39345 23.461 5.82483 23.7342C5.93419 23.8031 5.96716 23.8908 5.96716 24.0144C5.96716 24.4153 5.33492 24.5519 4.91398 24.5519C4.49358 24.5519 3.9773 24.3845 3.61186 24.2708C3.24614 24.1562 3.16481 23.9427 3.16481 23.8485C3.16426 23.7548 3.2346 23.5671 3.3511 23.5281ZM2.0031 28.4384C1.57391 28.0145 1.26782 27.2525 1.26782 26.448C1.26782 26.1362 1.31371 25.8356 1.39944 25.5517C1.39944 25.5517 1.4717 25.4223 1.54204 25.5331C1.59205 25.6114 1.65991 25.6919 1.72091 25.7993C1.78246 25.9067 2.11575 26.1598 2.0847 26.3596C1.96738 27.113 2.07316 28.1186 2.10833 28.2835C2.14378 28.4475 2.09212 28.5264 2.0031 28.4384ZM2.08498 25.8543C1.93303 25.7705 1.75196 25.3836 1.69289 25.2682C1.65085 25.1855 1.65332 24.9547 1.71075 24.8533C1.96161 24.4095 2.31908 24.0054 2.78234 23.7908C2.83537 23.7663 2.91752 23.7638 2.91752 23.8952C2.91752 23.9683 2.95379 24.0837 2.95517 24.1548C2.95681 24.2246 2.98841 24.376 2.89417 24.4936C2.80047 24.6107 2.3853 25.3377 2.28418 25.7487C2.26138 25.8424 2.23692 25.9386 2.08498 25.8543ZM4.41967 29.5331C4.39769 29.532 4.37571 29.5337 4.35373 29.5337C3.78578 29.5337 3.16426 29.3185 2.7958 29.1124C2.41525 28.8995 2.27264 27.9254 2.27264 27.4273C2.27264 25.8199 2.93511 24.8536 3.04062 24.6656C3.14613 24.4782 3.38078 24.4546 3.5569 24.5013C3.73303 24.5486 3.8009 24.584 4.00285 24.645C4.11221 24.6783 4.3312 24.7239 4.49551 24.7593C4.65982 24.7948 4.83539 24.8297 4.73016 25.1349C4.62465 25.4396 4.27075 26.1782 4.23201 27.0514C4.19684 27.8397 4.30235 28.6258 4.48122 29.1078C4.59745 29.4205 4.59552 29.5389 4.41967 29.5331ZM5.22886 29.4081C5.05246 29.465 4.97113 29.3394 4.88897 29.2449C4.57217 28.8833 4.49029 27.9098 4.49029 27.7809C4.49029 27.651 4.537 27.5106 4.62712 27.5084C5.39729 27.4891 5.9449 27.2641 6.4469 26.8514C6.9489 26.4387 7.16624 25.9724 7.21213 25.8812C7.25774 25.79 7.35665 25.8062 7.38056 25.9381C7.40007 26.0455 7.43991 26.2403 7.43991 26.4478C7.43963 27.848 6.49636 28.997 5.22886 29.4081Z" fill="#FFF22D"/>
<path fill-rule="evenodd" clip-rule="evenodd" d="M47.0829 26.4458C47.0829 24.5636 45.5571 23.0378 43.6752 23.0378C41.7925 23.0378 40.2676 24.5636 40.2676 26.4458C40.2676 28.3285 41.7928 29.8534 43.6752 29.8534C45.5571 29.8534 47.0829 28.3282 47.0829 26.4458Z" fill="#C23227"/>
<path fill-rule="evenodd" clip-rule="evenodd" d="M41.9964 24.3647C42.1439 24.5318 42.4283 24.6579 42.7215 24.7401C42.7215 24.7401 42.8627 24.8222 42.9443 24.9511C43.0694 25.1481 43.5126 26.2145 43.5315 26.8401C43.5373 27.0525 43.3587 27.2281 43.0743 27.188C42.7905 27.1473 42.2962 27.1594 41.5018 26.4178C41.3257 26.2535 40.7248 25.5542 40.9201 25.089C41.0737 24.7192 41.3403 24.4101 41.6359 24.1458C41.6359 24.1458 41.7829 24.0243 41.842 23.9776C41.8417 23.9779 41.8488 24.1982 41.9964 24.3647ZM44.8804 23.8485C44.8804 23.9427 44.7987 24.1562 44.4333 24.2708C44.0673 24.3845 43.5516 24.5519 43.1309 24.5519C42.7097 24.5519 42.0775 24.4156 42.0775 24.0144C42.0775 23.8908 42.1107 23.8031 42.2198 23.7342C42.6512 23.461 43.1584 23.3616 43.6909 23.3616C44.0423 23.3616 44.3784 23.4237 44.6938 23.5281C44.8095 23.5671 44.8804 23.7548 44.8804 23.8485ZM45.936 28.2832C45.9709 28.1183 46.0767 27.1127 45.9596 26.3593C45.9286 26.1595 46.2619 25.9065 46.3234 25.799C46.3847 25.6916 46.4523 25.6111 46.502 25.5328C46.5724 25.4223 46.6449 25.5515 46.6449 25.5515C46.7326 25.8421 46.777 26.1441 46.7768 26.4478C46.7768 27.2523 46.4704 28.0142 46.041 28.4382C45.9525 28.5264 45.9006 28.4475 45.936 28.2832ZM45.7599 25.749C45.659 25.338 45.2436 24.6107 45.1496 24.4939C45.0557 24.3763 45.0873 24.2249 45.0884 24.1551C45.0906 24.0839 45.1265 23.9685 45.1265 23.8954C45.1265 23.7641 45.2087 23.7666 45.2612 23.791C45.725 24.0054 46.0827 24.4095 46.3333 24.8536C46.3907 24.9549 46.3935 25.1858 46.3509 25.2685C46.2924 25.3839 46.111 25.7707 45.9591 25.8545C45.8077 25.9386 45.783 25.8424 45.7599 25.749ZM43.5634 29.1081C43.742 28.6261 43.8478 27.84 43.8123 27.0517C43.7736 26.1785 43.42 25.4402 43.3145 25.1352C43.2087 24.8299 43.3848 24.795 43.5491 24.7596C43.7134 24.7241 43.9324 24.6785 44.0423 24.6453C44.2434 24.584 44.3113 24.5486 44.4877 24.5016C44.6633 24.4549 44.8982 24.4785 45.004 24.6659C45.1098 24.8538 45.772 25.8202 45.772 27.4276C45.772 27.9255 45.6296 28.8995 45.2488 29.1127C44.8806 29.3188 44.2591 29.5339 43.6909 29.5339C43.6689 29.5339 43.6469 29.5323 43.6255 29.5334C43.4491 29.5389 43.4469 29.4205 43.5634 29.1081ZM40.605 26.4478C40.605 26.24 40.6448 26.0452 40.6646 25.9381C40.6882 25.8062 40.7869 25.79 40.8325 25.8812C40.8786 25.9724 41.096 26.4387 41.5977 26.8514C42.1 27.2641 42.6473 27.4888 43.4175 27.5084C43.5071 27.5106 43.5543 27.6512 43.5543 27.7809C43.5543 27.9098 43.4727 28.8833 43.1556 29.2449C43.0735 29.3394 42.9924 29.465 42.8155 29.4081C41.5477 28.997 40.605 27.848 40.605 26.4478Z" fill="#FFF22D"/>
<path d="M40.2817 26.4279C40.2812 25.978 40.3696 25.5324 40.5418 25.1168C40.714 24.7011 40.9666 24.3236 41.2852 24.0059C41.9051 23.386 42.7615 23.0027 43.707 23.0027C44.6525 23.0027 45.5092 23.386 46.1288 24.0059C46.7487 24.6255 47.1317 25.4819 47.1317 26.4279C47.1317 27.3739 46.7484 28.2301 46.1288 28.8497C45.5092 29.4693 44.653 29.8526 43.707 29.8526C43.2571 29.8531 42.8115 29.7648 42.3958 29.5927C41.9801 29.4206 41.6025 29.1681 41.2846 28.8497C40.9662 28.532 40.7137 28.1545 40.5416 27.7389C40.3695 27.3233 40.2812 26.8778 40.2817 26.4279ZM40.3166 26.4279C40.3166 27.3643 40.6961 28.2117 41.3094 28.8253C41.9232 29.4391 42.7706 29.8186 43.7073 29.8186C44.6439 29.8186 45.4911 29.4391 46.1052 28.8258C46.7184 28.212 47.0979 27.3646 47.0979 26.4279C47.0979 25.4912 46.7184 24.6441 46.1046 24.0303C45.7901 23.715 45.4165 23.465 45.005 23.2946C44.5936 23.1241 44.1526 23.0367 43.7073 23.0373C43.2619 23.0368 42.8209 23.1243 42.4095 23.2948C41.9981 23.4652 41.6244 23.7153 41.3099 24.0306C40.9946 24.345 40.7445 24.7187 40.574 25.1301C40.4036 25.5415 40.3161 25.9826 40.3166 26.4279Z" fill="#FDE62F"/>
</svg>
